# xmcd
#
# Track frame offsets:
#	150
#	22692
#	40952
#	53691
#	73948
#	90373
#	104999
#	116879
#	134847
#
# Disc length: 2123 seconds
#
# Revision: 0
# Processed by: cddbd v1.5.2PL0 Copyright (c) Steve Scherf et al.
# Submitted via: dBpowerAMP V4.0
#
DISCID=81084909
DTITLE=Georgie Bones - Rockin' The Blues
DYEAR=1900
DGENRE=Blues
TTITLE0=Just Bitchin'
TTITLE1=Gotta Scream
TTITLE2=LoveShock
TTITLE3=Baby Lady Devine
TTITLE4=Bone To Pick
TTITLE5=Who Needs You
TTITLE6=Devil In The Closet
TTITLE7=Rubble
TTITLE8=Behind The 8 Ball
EXTD=www.georgiebones.com
EXTT0=
EXTT1=
EXTT2=
EXTT3=
EXTT4=
EXTT5=
EXTT6=
EXTT7=
EXTT8=
PLAYORDER=
